<svg width="1232" height="60" viewBox="0 0 1232 60" fill="none" xmlns="http://www.w3.org/2000/svg">
<path d="M789.696 4V0H791.159L792.276 0.943287L789.696 4ZM820.5 30V34H819.038L817.92 33.0567L820.5 30ZM1230.83 27.1716C1232.39 28.7337 1232.39 31.2663 1230.83 32.8284L1205.37 58.2843C1203.81 59.8464 1201.28 59.8464 1199.72 58.2843C1198.15 56.7222 1198.15 54.1895 1199.72 52.6274L1222.34 30L1199.72 7.37258C1198.15 5.81049 1198.15 3.27783 1199.72 1.71573C1201.28 0.153632 1203.81 0.153632 1205.37 1.71573L1230.83 27.1716ZM0 4V0H789.696V4V8H0V4ZM789.696 4L792.276 0.943287L823.08 26.9433L820.5 30L817.92 33.0567L787.116 7.05671L789.696 4ZM820.5 30V26H1228V30V34H820.5V30Z" fill="white"/>
</svg>
