<svg width="871" height="377" viewBox="0 0 871 377" fill="none" xmlns="http://www.w3.org/2000/svg">
<g filter="url(#filter0_d_12_7)">
<path d="M71.0851 248.788L261.114 21.228C272.115 8.05353 290.391 4.12927 298.154 3.81395C448.323 3.16238 750.96 1.86458 760.16 1.88593C767.744 1.61507 769.87 5.31251 767.142 9.40215C760.117 20.3859 741.516 46.0116 736.5 53C733.5 56.5 731.5 57 725 57L315.244 56.615C311.244 56.615 306.449 57.615 301.244 64.115C265.808 108.366 189.987 204.763 183.167 213.548C176.347 222.332 183.642 224.549 188.142 224.559C202.744 224.647 220.867 225.057 226.141 224.647C231.416 224.238 237.029 221.856 240.153 219.68C245.161 216.192 258.897 200.923 267.723 189.744C274.5 180.5 270 180.228 260.745 180.228C259.999 180.228 257.5 180.186 242.745 180.186C226.749 180.186 228.914 171 234.244 163.615C238.614 157.56 249.918 144.795 258.744 133.615C268.028 121.87 272 123.615 285.244 123.615C306.411 123.664 344.944 123.576 361.744 123.615C375.89 123.615 372.912 131.342 362.824 145.964C339 180.5 283.292 256.124 272.039 268.754C259.244 283.115 249.244 284.115 235.502 284.669C183.335 284.715 112.803 284.685 84.0026 284.318C52.547 283.917 52.5 270.5 71.0851 248.788Z" fill="white"/>
<path d="M280.244 117.741L365.744 117.741C384 118.5 377.8 133.042 372.837 140.488C347.5 178.5 286.744 259.615 273.244 277.115C270.93 280.115 269.744 284.669 277.244 284.669C295.244 284.711 341.102 284.929 347.502 284.929C357.244 284.929 356.244 285.615 360.515 279.459C360.515 279.459 443.82 148.152 453.852 134.176C463.884 120.199 477.39 117.73 481.89 117.741C510.889 118.308 538.29 117.871 545.89 117.889C553.49 117.907 560.4 113.589 561.404 111.925C571.429 100.948 585.244 81.615 592.999 70.9983C596.244 66.5554 595.281 63.163 591.744 63.0493C588.207 62.9357 327.244 62.615 317.744 62.615C315.452 62.615 310.744 63.115 305.744 68.115C300.765 74.3495 284.693 95.3962 276.681 105.889L275.744 107.115C268.121 117.097 275.244 117.741 280.244 117.741Z" fill="white"/>
<path d="M6.8799 337.139L44.9795 294.227C48.2444 290.752 50.2444 290.752 55.4876 290.752C231.654 290.994 567.23 291.466 578.987 291.466C590.744 291.466 592.244 290.615 596.244 285.466L655.469 194.021C660.744 186.115 661.81 179.404 658.517 173.528C651.291 160.634 637.355 133.101 634.37 126.594C631.78 120.948 628.744 119.081 622.888 119.068C613.888 119.047 588.444 119.115 573.244 119.115C568.744 119.115 567.667 115.615 569.903 112.445C578.244 100.615 597.378 75.115 601.502 69.518C607.02 62.0308 614.017 63.047 615.017 63.0493L663.017 63.1607C668.217 63.1728 670.244 65.018 671.744 67.615L695.901 113.237C700.281 122.047 705.393 116.926 707.401 113.264L775.142 9.42071C781.244 0.615066 786.244 1.88596 791.744 1.88591C806.911 1.9211 818.16 2.0205 838.16 2.06691C858.16 2.11332 853.961 15.7703 850.112 22.5947C792.938 123.962 670.495 320.536 656.876 339.647C640.846 362.14 638.744 359.615 626.744 360.115L28.83 358.69C-4.77179 359.412 0.19586 344.624 6.8799 337.139Z" fill="white"/>
<path d="M376.244 284.929C370.744 284.929 365.744 283.115 370.744 276.115L399.118 235.049C402.141 230.65 405.378 231.652 410.126 231.574C426.792 231.78 476.725 232.146 487.126 231.753C497.04 231.378 492.756 226.435 490.643 224.261C476.164 213.026 452.713 194.173 443.729 187.152C434.745 180.131 435.879 176.941 438.263 172.639C444.618 162.988 456.429 143.982 462.85 135.196C472.5 123 476 124.5 485.375 124.249L489.727 124.277C530.539 124.543 604.334 125.025 614.374 125.048C625.374 125.074 625.244 124.615 628.363 129.58C636.327 145.099 645.288 162.12 649.271 169.129C653.109 175.881 652.745 178.626 647.749 178.626C630.08 178.626 600.4 179.022 569.903 178.626C555.244 178.435 555.744 183.078 560.744 187.115C560.744 187.115 615.132 229.05 618.625 232.058C622.118 235.066 620.113 237.562 618.607 240.058C617.101 242.555 602.639 264.078 593.519 278C589.684 283.855 587.244 285.466 579.001 285.466L376.244 284.929Z" fill="white"/>
<path d="M71.0851 248.788L261.114 21.228C272.115 8.05353 290.391 4.12927 298.154 3.81395C448.323 3.16238 750.96 1.86458 760.16 1.88593C767.744 1.61507 769.87 5.31251 767.142 9.40215C760.117 20.3859 741.516 46.0116 736.5 53C733.5 56.5 731.5 57 725 57L315.244 56.615C311.244 56.615 306.449 57.615 301.244 64.115C265.808 108.366 189.987 204.763 183.167 213.548C176.347 222.332 183.642 224.549 188.142 224.559C202.744 224.647 220.867 225.057 226.141 224.647C231.416 224.238 237.029 221.856 240.153 219.68C245.161 216.192 258.897 200.923 267.723 189.744C274.5 180.5 270 180.228 260.745 180.228C259.999 180.228 257.5 180.186 242.745 180.186C226.749 180.186 228.914 171 234.244 163.615C238.614 157.56 249.918 144.795 258.744 133.615C268.028 121.87 272 123.615 285.244 123.615C306.411 123.664 344.944 123.576 361.744 123.615C375.89 123.615 372.912 131.342 362.824 145.964C339 180.5 283.292 256.124 272.039 268.754C259.244 283.115 249.244 284.115 235.502 284.669C183.335 284.715 112.803 284.685 84.0026 284.318C52.547 283.917 52.5 270.5 71.0851 248.788Z" stroke="black" stroke-width="3"/>
<path d="M280.244 117.741L365.744 117.741C384 118.5 377.8 133.042 372.837 140.488C347.5 178.5 286.744 259.615 273.244 277.115C270.93 280.115 269.744 284.669 277.244 284.669C295.244 284.711 341.102 284.929 347.502 284.929C357.244 284.929 356.244 285.615 360.515 279.459C360.515 279.459 443.82 148.152 453.852 134.176C463.884 120.199 477.39 117.73 481.89 117.741C510.889 118.308 538.29 117.871 545.89 117.889C553.49 117.907 560.4 113.589 561.404 111.925C571.429 100.948 585.244 81.615 592.999 70.9983C596.244 66.5554 595.281 63.163 591.744 63.0493C588.207 62.9357 327.244 62.615 317.744 62.615C315.452 62.615 310.744 63.115 305.744 68.115C300.765 74.3495 284.693 95.3962 276.681 105.889L275.744 107.115C268.121 117.097 275.244 117.741 280.244 117.741Z" stroke="black" stroke-width="3"/>
<path d="M6.8799 337.139L44.9795 294.227C48.2444 290.752 50.2444 290.752 55.4876 290.752C231.654 290.994 567.23 291.466 578.987 291.466C590.744 291.466 592.244 290.615 596.244 285.466L655.469 194.021C660.744 186.115 661.81 179.404 658.517 173.528C651.291 160.634 637.355 133.101 634.37 126.594C631.78 120.948 628.744 119.081 622.888 119.068C613.888 119.047 588.444 119.115 573.244 119.115C568.744 119.115 567.667 115.615 569.903 112.445C578.244 100.615 597.378 75.115 601.502 69.518C607.02 62.0308 614.017 63.047 615.017 63.0493L663.017 63.1607C668.217 63.1728 670.244 65.018 671.744 67.615L695.901 113.237C700.281 122.047 705.393 116.926 707.401 113.264L775.142 9.42071C781.244 0.615066 786.244 1.88596 791.744 1.88591C806.911 1.9211 818.16 2.0205 838.16 2.06691C858.16 2.11332 853.961 15.7703 850.112 22.5947C792.938 123.962 670.495 320.536 656.876 339.647C640.846 362.14 638.744 359.615 626.744 360.115L28.83 358.69C-4.77179 359.412 0.19586 344.624 6.8799 337.139Z" stroke="black" stroke-width="3"/>
<path d="M376.244 284.929C370.744 284.929 365.744 283.115 370.744 276.115L399.118 235.049C402.141 230.65 405.378 231.652 410.126 231.574C426.792 231.78 476.725 232.146 487.126 231.753C497.04 231.378 492.756 226.435 490.643 224.261C476.164 213.026 452.713 194.173 443.729 187.152C434.745 180.131 435.879 176.941 438.263 172.639C444.618 162.988 456.429 143.982 462.85 135.196C472.5 123 476 124.5 485.375 124.249L489.727 124.277C530.539 124.543 604.334 125.025 614.374 125.048C625.374 125.074 625.244 124.615 628.363 129.58C636.327 145.099 645.288 162.12 649.271 169.129C653.109 175.881 652.745 178.626 647.749 178.626C630.08 178.626 600.4 179.022 569.903 178.626C555.244 178.435 555.744 183.078 560.744 187.115C560.744 187.115 615.132 229.05 618.625 232.058C622.118 235.066 620.113 237.562 618.607 240.058C617.101 242.555 602.639 264.078 593.519 278C589.684 283.855 587.244 285.466 579.001 285.466L376.244 284.929Z" stroke="black" stroke-width="3"/>
</g>
<defs>
<filter id="filter0_d_12_7" x="0.525635" y="0.320984" width="869.605" height="376.594" filterUnits="userSpaceOnUse" color-interpolation-filters="sRGB">
<feFlood flood-opacity="0" result="BackgroundImageFix"/>
<feColorMatrix in="SourceAlpha" type="matrix" values="0 0 0 0 0 0 0 0 0 0 0 0 0 0 0 0 0 0 127 0" result="hardAlpha"/>
<feOffset dx="10" dy="10"/>
<feGaussianBlur stdDeviation="2.65"/>
<feComposite in2="hardAlpha" operator="out"/>
<feColorMatrix type="matrix" values="0 0 0 0 0 0 0 0 0 0 0 0 0 0 0 0 0 0 0.34 0"/>
<feBlend mode="normal" in2="BackgroundImageFix" result="effect1_dropShadow_12_7"/>
<feBlend mode="normal" in="SourceGraphic" in2="effect1_dropShadow_12_7" result="shape"/>
</filter>
</defs>
</svg>
